<svg preserveAspectRatio="none" overflow="visible" style="display: block;" width="48" height="48" viewBox="0 0 48 48" fill="none" xmlns="http://www.w3.org/2000/svg">
<g id="Ebene_1">
<path id="Vector_14" d="M47.9997 20.0668C47.9997 20.195 47.9997 20.3232 47.9997 20.4516C47.9653 20.5 47.9891 20.5547 47.982 20.6062C47.9962 21.0758 47.8726 21.5117 47.6781 21.9366C47.3151 22.7297 46.8269 23.4488 46.3657 24.1846C45.9693 24.8169 45.5663 25.4449 45.2915 26.1439C45.0552 26.7444 45.0055 27.3623 45.0731 27.9963C45.1656 28.864 45.4366 29.6895 45.6757 30.5223C45.8619 31.1711 46.063 31.8175 46.1543 32.4875C46.2397 33.1117 46.2786 33.7385 46.0656 34.3519C45.8612 34.94 45.478 35.3905 44.9843 35.7588C44.364 36.2214 43.662 36.5275 42.9494 36.815C42.114 37.1519 41.2698 37.4684 40.4647 37.8786C39.5268 38.3564 38.8788 39.082 38.4527 40.0332C38.0019 41.0405 37.6989 42.1017 37.2707 43.1162C36.9698 43.8288 36.6212 44.5098 36.0393 45.0475C35.6261 45.4294 35.1429 45.6525 34.5875 45.7299C33.7532 45.8464 32.9444 45.6902 32.1376 45.5056C31.3904 45.3347 30.6536 45.1202 29.9024 44.9654C29.3158 44.845 28.7256 44.7582 28.1249 44.7914C27.658 44.8169 27.2152 44.9481 26.7873 45.1305C25.8972 45.5103 25.1245 46.0828 24.3275 46.6142C23.646 47.0681 22.9675 47.5244 22.2001 47.8309C21.9557 47.9286 21.7029 47.9571 21.4468 47.9824C21.395 47.9895 21.3395 47.9657 21.2905 48C21.0911 48 20.8917 48 20.6923 48C20.6438 47.9657 20.5887 47.9895 20.5372 47.9824C19.939 47.9681 19.4736 47.6552 19.0275 47.3085C18.4475 46.8576 17.9783 46.3001 17.5072 45.7423C17.0559 45.2082 16.6216 44.66 16.1367 44.1539C15.7431 43.7428 15.329 43.3629 14.8245 43.0889C14.3973 42.8562 13.9352 42.731 13.4589 42.6581C12.7988 42.5563 12.1333 42.5309 11.4655 42.5115C10.6423 42.4871 9.81552 42.4822 8.99981 42.3377C8.41248 42.2338 7.84963 42.062 7.36186 41.7032C6.82229 41.3066 6.49598 40.7645 6.29899 40.1384C6.09888 39.5019 6.02635 38.8447 5.97293 38.1824C5.9063 37.3491 5.88158 36.5116 5.76293 35.6831C5.66669 35.0121 5.52048 34.3535 5.1516 33.7677C4.84747 33.2843 4.4496 32.8846 4.01551 32.5163C3.27162 31.8851 2.46418 31.3336 1.72052 30.7029C1.13788 30.2092 0.604205 29.6743 0.260038 28.9793C0.120676 28.6977 0.0338208 28.407 0.0352332 28.092C0.0375873 27.9302 0.00532574 27.7697 0.0185086 27.6074C0.0517013 27.4935 0.0347571 27.3757 0.0415839 27.2601C0.083016 26.556 0.414475 25.9563 0.743342 25.3602C1.20568 24.5232 1.77584 23.7507 2.24642 22.9186C2.56258 22.3597 2.84789 21.7876 2.96371 21.1455C3.064 20.5905 3.00349 20.046 2.89849 19.5016C2.71346 18.54 2.3919 17.6143 2.13884 16.6707C1.95969 16.0009 1.81562 15.3257 1.82386 14.6264C1.83586 13.6363 2.25584 12.8614 3.05199 12.2735C3.74692 11.7609 4.53458 11.4328 5.3291 11.1166C6.07958 10.8179 6.83592 10.5342 7.55395 10.161C8.16413 9.84367 8.70509 9.44259 9.09917 8.87218C9.41246 8.41895 9.64368 7.92222 9.84518 7.41193C10.1808 6.56132 10.4461 5.6848 10.8033 4.84244C11.0891 4.16865 11.4257 3.52669 11.9688 3.01242C12.4759 2.53276 13.078 2.29844 13.7732 2.26499C14.724 2.21915 15.632 2.44272 16.5409 2.67145C17.2612 2.85292 17.9808 3.03511 18.7144 3.16069C19.6907 3.32814 20.6191 3.22688 21.5132 2.77762C22.2538 2.40554 22.9322 1.93968 23.6165 1.48084C24.3447 0.992521 25.0655 0.493689 25.8929 0.173293C26.2008 0.0540213 26.5184 0.0371829 26.8393 0.0175382C26.9855 0.0175382 27.1321 0.0175382 27.2783 0.0175382C27.9862 -0.00397749 28.5519 0.322731 29.0698 0.752576C29.7336 1.3038 30.2856 1.96049 30.8314 2.62304C31.2391 3.11836 31.6428 3.6179 32.0988 4.07067C32.5536 4.52249 33.0566 4.90931 33.6689 5.13431C34.0724 5.28234 34.4912 5.36464 34.9166 5.41237C35.6325 5.49281 36.3521 5.50167 37.0715 5.52506C37.859 5.55101 38.6502 5.57278 39.423 5.76387C40.3006 5.9811 41.0332 6.39929 41.4742 7.21731C41.7225 7.67803 41.8597 8.17804 41.9448 8.69162C42.0502 9.32866 42.0895 9.97203 42.1323 10.6159C42.1888 11.4615 42.239 12.3084 42.4393 13.1384C42.6557 14.0348 43.1602 14.7366 43.8464 15.3392C44.5759 15.9796 45.3765 16.5287 46.1234 17.1463C46.6823 17.6085 47.2155 18.0965 47.6091 18.7154C47.8422 19.0818 47.9973 19.4705 47.9822 19.9123C47.9891 19.9633 47.9653 20.0182 47.9997 20.0668Z" fill="#00A7D1"/>
<path id="Vector_15" fill-rule="evenodd" clip-rule="evenodd" d="M0.0682776 28.1081C0.0216668 28.0588 0.0513192 27.9804 0 27.9327C0 27.816 0 27.6995 0 27.5831C0.0129475 27.5838 0.0256598 27.5847 0.0386073 27.5857C0.0209517 27.7613 0.0826373 27.9325 0.0682776 28.1081Z" fill="#C6E1F1"/>
<path id="Vector_16" fill-rule="evenodd" clip-rule="evenodd" d="M27.3075 0C27.3075 0.0105132 27.3086 0.0210288 27.3108 0.0315421C27.1448 0.0317757 26.9788 0.0322441 26.813 0.0327114C26.8154 0.0219644 26.8161 0.0109805 26.8149 0C26.9793 0 27.1434 0 27.3075 0Z" fill="#9FCFE6"/>
<path id="Vector_17" fill-rule="evenodd" clip-rule="evenodd" d="M47.969 19.9249C47.9794 19.9249 47.9892 19.9254 47.9996 19.927C47.9996 19.9732 47.9996 20.0199 47.9996 20.0666C47.9651 20.0246 47.9601 19.976 47.969 19.9249Z" fill="#CBE4F2"/>
<path id="Vector_18" fill-rule="evenodd" clip-rule="evenodd" d="M48 20.5909C47.9896 20.593 47.9793 20.5947 47.9687 20.5956C47.9607 20.5438 47.9581 20.4929 48 20.4516C48 20.4978 48 20.5445 48 20.5909Z" fill="#8AC7E2"/>
<path id="Vector_19" fill-rule="evenodd" clip-rule="evenodd" d="M20.5512 47.9995C20.5516 47.9886 20.5512 47.9776 20.55 47.9667C20.6005 47.9633 20.6528 47.9548 20.692 47.9995C20.645 47.9995 20.5982 47.9995 20.5512 47.9995Z" fill="#C9E3F1"/>
<path id="Vector_20" fill-rule="evenodd" clip-rule="evenodd" d="M21.4318 47.9667C21.4307 47.9776 21.4304 47.9886 21.4307 47.9995C21.3836 47.9995 21.3371 47.9995 21.29 47.9995C21.329 47.9519 21.3815 47.9648 21.4318 47.9667Z" fill="#D0E6F3"/>
<path id="Vector_21" fill-rule="evenodd" clip-rule="evenodd" d="M7.63397 23.9996C7.68998 19.8365 9.06878 16.1725 11.8782 13.0703C14.1981 10.508 17.071 8.85604 20.4539 8.08778C21.3811 7.87707 22.3225 7.76038 23.274 7.71827C26.0728 7.59458 28.7301 8.14203 31.2452 9.3649C32.7097 10.0768 34.0364 10.9896 35.2213 12.1021C37.5991 14.3339 39.1808 17.0287 39.9577 20.1866C40.1752 21.0706 40.3093 21.9682 40.3703 22.877C40.4264 23.7098 40.4261 24.5426 40.3557 25.3735C40.1547 27.7412 39.4784 29.9673 38.2945 32.0333C36.6292 34.9403 34.2869 37.1454 31.2756 38.6424C29.7598 39.3964 28.1585 39.887 26.4817 40.1412C25.364 40.3108 24.2399 40.366 23.114 40.2982C19.4075 40.0748 16.1299 38.7707 13.3202 36.3563C10.6488 34.0602 8.90798 31.1884 8.07749 27.776C7.84704 26.8289 7.71187 25.8665 7.66315 24.8922C7.6488 24.5952 7.63776 24.2984 7.63397 23.9996Z" fill="white"/>
<path id="Vector_22" fill-rule="evenodd" clip-rule="evenodd" d="M39.2416 24.0122C39.1882 27.9037 37.8946 31.3242 35.2573 34.2141C33.1109 36.5661 30.4599 38.0841 27.3445 38.7937C26.5376 38.9775 25.7193 39.0862 24.8916 39.1288C21.4348 39.3061 18.271 38.4356 15.4162 36.4934C13.3147 35.0638 11.6843 33.2113 10.5109 30.9648C9.71813 29.4465 9.20798 27.8387 8.96458 26.1451C8.81813 25.1259 8.77387 24.1017 8.84309 23.0774C9.08347 19.5341 10.3919 16.4298 12.7987 13.8011C14.9317 11.4716 17.5579 9.95779 20.6458 9.24192C22.037 8.91943 23.45 8.79969 24.8727 8.8909C28.9632 9.1521 32.4197 10.7751 35.2093 13.7555C37.1992 15.8811 38.4424 18.395 38.9838 21.2484C39.1566 22.1602 39.2367 23.0821 39.2416 24.0122Z" fill="#00A7D1"/>
<path id="Vector_23" fill-rule="evenodd" clip-rule="evenodd" d="M20.9444 18.4708C20.9647 18.6948 20.9651 18.6988 20.7361 18.7235C20.3625 18.7638 19.9917 18.8166 19.6287 18.9146C19.4757 18.956 19.3276 19.0114 19.1916 19.0949C18.9908 19.218 18.8856 19.3929 18.8895 19.6309C18.8919 19.7722 18.9156 19.909 18.9524 20.0444C19.0484 20.4046 19.1457 20.7645 19.2429 21.1244C19.2855 21.2816 19.2864 21.2825 19.4427 21.2411C20.0597 21.0769 20.6765 20.9123 21.2935 20.7477C21.5454 20.6803 21.5473 20.6798 21.5946 20.9401C21.7135 21.5933 21.8307 22.2467 21.948 22.8999C21.9724 23.0374 21.9703 23.0433 21.8328 23.0802C21.2558 23.2353 20.6784 23.3885 20.101 23.5428C19.8691 23.6048 19.9074 23.5926 19.959 23.7846C20.4515 25.6184 20.9468 27.4514 21.4416 29.2847C21.5449 29.6673 21.6485 30.0497 21.7509 30.4323C21.7987 30.6109 21.798 30.6119 21.6271 30.6572C20.9647 30.8334 20.3022 31.0095 19.64 31.1855C19.4588 31.2335 19.2777 31.2826 19.096 31.3294C18.9651 31.3633 18.9625 31.3628 18.9279 31.2368C18.8112 30.81 18.696 30.3825 18.5804 29.955C18.0936 28.15 17.6063 26.3448 17.1197 24.5395C17.1136 24.5171 17.1084 24.4944 17.1016 24.472C17.0663 24.3574 17.0614 24.3527 16.9399 24.3845C16.5943 24.475 16.2494 24.569 15.9036 24.6593C15.5604 24.7486 15.6263 24.7774 15.5373 24.4549C15.3667 23.8373 15.2021 23.218 15.0352 22.5997C15.0276 22.5713 15.0239 22.5419 15.0135 22.515C14.9886 22.4502 15.0114 22.4189 15.0778 22.403C15.1915 22.3754 15.3038 22.3407 15.4168 22.3108C15.6997 22.2355 15.9829 22.1614 16.2661 22.0868C16.4441 22.0395 16.4441 22.0391 16.3987 21.8679C16.2643 21.3611 16.1211 20.8564 15.998 20.3473C15.8735 19.8328 15.8368 19.311 15.9561 18.7888C16.1075 18.1263 16.5051 17.641 17.0731 17.2827C17.5743 16.9663 18.1284 16.7808 18.7012 16.6436C19.2097 16.5217 19.7267 16.4569 20.2486 16.427C20.3481 16.4214 20.4472 16.409 20.5468 16.4031C20.7189 16.3931 20.7231 16.3936 20.7434 16.5594C20.774 16.8077 20.7992 17.057 20.8253 17.3058C20.8663 17.6943 20.9049 18.0825 20.9444 18.4708Z" fill="white"/>
<path id="Vector_24" fill-rule="evenodd" clip-rule="evenodd" d="M27.632 29.1161C27.228 29.1175 26.8382 29.0539 26.478 28.8612C26.1153 28.6668 25.8535 28.3754 25.657 28.0199C25.4919 27.7213 25.3947 27.3983 25.3067 27.0716C24.8924 25.5307 24.4778 23.99 24.063 22.4492C24.0571 22.4268 24.0493 22.4048 24.0428 22.3824C24.0041 22.2559 24.0032 22.2537 23.8716 22.2881C23.5317 22.3772 23.1924 22.4687 22.8528 22.5582C22.7118 22.5952 22.7089 22.5945 22.6715 22.4572C22.4905 21.7883 22.3106 21.119 22.1317 20.4495C22.0985 20.326 22.1006 20.3229 22.2336 20.2872C22.5674 20.1976 22.9022 20.1111 23.236 20.022C23.3947 19.9796 23.3952 19.978 23.3535 19.8225C23.1795 19.1759 23.0053 18.5292 22.8306 17.8826C22.8248 17.8601 22.8177 17.8379 22.8099 17.8159C22.7803 17.7308 22.7988 17.6789 22.893 17.6426C23.1171 17.5568 23.3365 17.4588 23.5578 17.3657C24.1461 17.1185 24.7346 16.8716 25.3229 16.6246C25.3448 16.6155 25.3662 16.6061 25.3879 16.5982C25.5065 16.5533 25.5126 16.5542 25.5461 16.6735C25.6296 16.9763 25.7106 17.2804 25.7926 17.5841C25.9241 18.0734 26.0553 18.5626 26.1873 19.0519C26.2332 19.2238 26.2342 19.2235 26.4126 19.1761C27.0127 19.0166 27.6127 18.8571 28.2125 18.6974C28.241 18.6898 28.2686 18.6796 28.2973 18.6737C28.4067 18.6517 28.4157 18.6546 28.4395 18.7642C28.4847 18.9747 28.5266 19.1861 28.5683 19.3976C28.6596 19.8604 28.7497 20.3232 28.8408 20.786C28.8741 20.956 28.8747 20.9572 28.709 21.0014C28.1375 21.1544 27.5656 21.3057 26.994 21.4586C26.85 21.4972 26.8481 21.4993 26.8879 21.6469C27.2857 23.1256 27.6843 24.6046 28.0845 26.0829C28.1824 26.4444 28.403 26.574 28.7745 26.4841C29.1236 26.3997 29.4557 26.2685 29.7691 26.0936C29.7999 26.0765 29.8321 26.0613 29.8599 26.0405C29.9348 25.9853 29.976 26.0157 30.0035 26.091C30.0136 26.1184 30.0276 26.1444 30.0391 26.1708C30.2926 26.7407 30.5452 27.3109 30.7997 27.8803C30.8712 28.0398 30.8729 28.0276 30.7364 28.113C29.8651 28.6582 28.9268 29.0155 27.8957 29.1107C27.8665 29.1135 27.8371 29.1156 27.8079 29.1163C27.749 29.1165 27.6906 29.1161 27.632 29.1161Z" fill="white"/>
<path id="Vector_25" fill-rule="evenodd" clip-rule="evenodd" d="M31.8777 24.5325C31.8603 24.4505 31.9008 24.4404 31.942 24.4292C32.1287 24.3789 32.3148 24.3274 32.5018 24.2776C33.1696 24.0992 33.8373 23.9215 34.5053 23.7435C34.5282 23.7374 34.5527 23.7365 34.5736 23.7271C34.66 23.6878 34.704 23.7201 34.725 23.8064C34.7542 23.9252 34.7871 24.0431 34.8187 24.1612C35.0538 25.033 35.2888 25.9044 35.5237 26.7762C35.5312 26.8043 35.5376 26.8328 35.5456 26.8609C35.5614 26.9137 35.5522 26.9521 35.4905 26.9648C35.4677 26.9694 35.446 26.979 35.4232 26.9849C34.58 27.2089 33.7363 27.4332 32.8926 27.6565C32.7327 27.6989 32.7315 27.6974 32.6861 27.5281C32.4227 26.5555 32.1602 25.5826 31.8972 24.6097C31.8878 24.5763 31.8803 24.5421 31.8777 24.5325Z" fill="white"/>
</g>
</svg>
