<?xml version="1.0" encoding="utf-8"?>
<!-- Generator: Adobe Illustrator 16.0.0, SVG Export Plug-In . SVG Version: 6.00 Build 0)  -->
<!DOCTYPE svg PUBLIC "-//W3C//DTD SVG 1.0//EN" "http://www.w3.org/TR/2001/REC-SVG-20010904/DTD/svg10.dtd">
<svg version="1.0" xmlns="http://www.w3.org/2000/svg" xmlns:xlink="http://www.w3.org/1999/xlink" enable-background="new 0 0 1000 1000" xml:space="preserve">
<g id="Ebene_1">
	<g>
		<path fill="#00A7D1" d="M874.68,395.296c0,1.76,0,3.521,0,5.28c-0.467,0.663-0.143,1.416-0.24,2.122
			c0.193,6.448-1.492,12.435-4.146,18.269c-4.951,10.888-11.613,20.764-17.9,30.865c-5.406,8.682-10.904,17.303-14.654,26.904
			c-3.223,8.248-3.9,16.729-2.979,25.433c1.26,11.912,4.955,23.246,8.217,34.682c2.541,8.908,5.281,17.783,6.531,26.982
			c1.166,8.572,1.697,17.176-1.211,25.598c-2.789,8.074-8.014,14.262-14.75,19.318c-8.459,6.352-18.037,10.555-27.752,14.5
			c-11.398,4.629-22.91,8.969-33.891,14.602c-12.793,6.564-21.635,16.523-27.445,29.584c-6.15,13.828-10.281,28.4-16.123,42.33
			c-4.104,9.787-8.859,19.133-16.799,26.518c-5.637,5.244-12.229,8.307-19.803,9.369c-11.381,1.598-22.416-0.549-33.418-3.082
			c-10.191-2.346-20.24-5.291-30.488-7.412c-8-1.654-16.051-2.846-24.244-2.393c-6.371,0.352-12.408,2.152-18.246,4.658
			c-12.143,5.211-22.678,13.074-33.551,20.369c-9.295,6.234-18.553,12.496-29.021,16.705c-3.332,1.338-6.779,1.73-10.271,2.078
			c-0.709,0.098-1.467-0.229-2.135,0.24c-2.72,0-5.439,0-8.16,0c-0.66-0.467-1.412-0.143-2.115-0.24
			c-8.162-0.193-14.504-4.49-20.591-9.252c-7.913-6.191-14.314-13.85-20.736-21.502c-6.154-7.336-12.081-14.861-18.697-21.812
			c-5.37-5.643-11.016-10.857-17.898-14.623c-5.831-3.191-12.131-4.91-18.626-5.914c-9.002-1.395-18.083-1.746-27.188-2.016
			c-11.232-0.334-22.51-0.404-33.631-2.385c-8.015-1.426-15.689-3.785-22.343-8.711c-7.36-5.447-11.811-12.887-14.496-21.484
			c-2.729-8.74-3.721-17.766-4.446-26.855c-0.913-11.443-1.249-22.939-2.867-34.316c-1.31-9.213-3.307-18.254-8.335-26.299
			c-4.148-6.639-9.577-12.127-15.498-17.182c-10.147-8.664-21.158-16.238-31.304-24.898c-7.943-6.781-15.227-14.123-19.921-23.666
			c-1.901-3.865-3.086-7.855-3.065-12.18c0.029-2.223-0.412-4.428-0.232-6.654c0.455-1.562,0.225-3.18,0.317-4.768
			c0.562-9.67,5.083-17.9,9.574-26.086c6.304-11.492,14.081-22.098,20.5-33.521c4.311-7.672,8.203-15.529,9.783-24.346
			c1.365-7.619,0.542-15.096-0.889-22.572c-2.527-13.203-6.915-25.912-10.361-38.871c-2.445-9.194-4.41-18.467-4.296-28.066
			c0.162-13.596,5.891-24.234,16.752-32.303c9.477-7.04,20.218-11.543,31.058-15.886c10.234-4.1,20.555-7.997,30.347-13.121
			c8.323-4.356,15.702-9.865,21.081-17.695c4.274-6.222,7.43-13.043,10.177-20.051c4.577-11.677,8.197-23.712,13.068-35.278
			c3.896-9.251,8.488-18.067,15.9-25.128c6.915-6.586,15.128-9.801,24.611-10.261c12.97-0.63,25.353,2.439,37.75,5.582
			c9.825,2.491,19.644,4.991,29.65,6.718c13.317,2.299,25.981,0.906,38.174-5.261c10.102-5.11,19.354-11.503,28.688-17.806
			c9.932-6.706,19.766-13.555,31.051-17.954c4.199-1.638,8.531-1.868,12.906-2.136c1.998,0,3.994,0,5.99,0
			c9.654-0.295,17.371,4.192,24.436,10.093c9.059,7.567,16.588,16.582,24.031,25.681c5.561,6.798,11.066,13.66,17.287,19.877
			c6.203,6.202,13.066,11.515,21.418,14.603c5.5,2.033,11.213,3.162,17.016,3.819c9.766,1.105,19.58,1.227,29.395,1.549
			c10.742,0.353,21.533,0.653,32.076,3.278c11.969,2.98,21.963,8.725,27.977,19.957c3.387,6.324,5.26,13.19,6.42,20.24
			c1.439,8.748,1.973,17.582,2.559,26.419c0.771,11.611,1.457,23.238,4.188,34.634c2.947,12.306,9.83,21.946,19.189,30.216
			c9.949,8.793,20.873,16.334,31.057,24.811c7.623,6.346,14.898,13.047,20.264,21.543c3.18,5.032,5.297,10.365,5.092,16.434
			C874.537,393.875,874.213,394.63,874.68,395.296z"/>
		<path fill-rule="evenodd" clip-rule="evenodd" fill="#FFFFFF" d="M585.691,120.228c-6.453,0.651-12.447,2.806-18.238,5.601
			c-7.658,3.696-14.729,8.372-21.748,13.128c-7.942,5.381-15.756,10.96-24.055,15.799c-5.189,3.026-10.549,5.701-16.231,7.687
			c-8.881,3.104-17.981,3.377-27.22,2.198c-11.771-1.503-23.157-4.733-34.623-7.601c-8.143-2.037-16.295-4.034-24.666-4.866
			c-5.739-0.571-11.494-0.666-17.199,0.446c-9.048,1.763-16.169,6.617-21.883,13.709c-4.914,6.1-8.393,13.015-11.432,20.175
			c-3.845,9.058-6.865,18.421-10.226,27.658c-2.489,6.838-5.183,13.584-8.453,20.102c-5.132,10.229-12.541,18.226-22.503,23.917
			c-7.802,4.458-16.031,7.956-24.34,11.299c-8.823,3.549-17.745,6.86-26.292,11.067c-6.697,3.297-13.086,7.052-18.599,12.167
			c-7.871,7.304-11.73,16.37-12.059,27.038c-0.273,8.885,1.352,17.514,3.62,26.024c2.716,10.191,5.689,20.313,8.495,30.481
			c2.023,7.33,3.482,14.779,3.997,22.377c0.545,8.032-0.904,15.75-3.958,23.189c-2.988,7.277-6.906,14.054-11.021,20.729
			c-5.246,8.506-10.888,16.768-15.771,25.498c-4.109,7.346-7.735,14.891-9.619,23.17c-0.55,2.42-0.606,4.904-1.18,7.311
			c-0.197,0.295-0.373,0.283-0.528-0.035c0-126.24,0-252.48,0-378.721c121.92,0,243.84,0,365.76,0
			C586.045,119.947,586.035,120.098,585.691,120.228z"/>
		<path fill-rule="evenodd" clip-rule="evenodd" fill="#FFFFFF" d="M512.293,778.365c8.056-1.482,15.354-4.867,22.392-8.912
			c8.541-4.908,16.528-10.658,24.679-16.162c6.963-4.699,13.975-9.318,21.535-13.027c6.354-3.117,12.924-5.516,20.023-6.291
			c5.842-0.639,11.648-0.316,17.445,0.469c11.596,1.568,22.824,4.787,34.135,7.625c8.609,2.16,17.246,4.223,26.119,4.885
			c8.883,0.664,17.588,0.002,25.576-4.561c5.533-3.16,9.861-7.584,13.492-12.744c4.539-6.453,7.793-13.572,10.705-20.865
			c3.768-9.43,6.834-19.115,10.445-28.604c2.02-5.307,4.264-10.514,6.787-15.607c5.48-11.061,13.795-19.262,24.627-25.078
			c8.264-4.438,16.916-7.969,25.609-11.422c8.32-3.307,16.686-6.516,24.668-10.602c6.574-3.365,12.816-7.217,18.062-12.518
			c6.977-7.047,10.406-15.547,10.746-25.416c0.344-9.957-1.723-19.537-4.232-29.068c-2.707-10.277-6.074-20.373-8.572-30.709
			c-1.748-7.232-3.102-14.51-3.264-22c-0.166-7.762,1.533-15.062,4.568-22.125c3.678-8.559,8.594-16.424,13.551-24.268
			c5.211-8.246,10.617-16.375,15.1-25.059c3.236-6.271,5.982-12.728,7.373-19.697c0.268-1.35,0.312-2.695,0.391-4.049
			c0.088-0.376,0.23-0.398,0.426-0.064c0,125.439,0,250.88,0,376.32c-120.801,0-241.6,0-362.4,0
			C511.956,778.656,511.961,778.506,512.293,778.365z"/>
		<path fill-rule="evenodd" clip-rule="evenodd" fill="#FFFFFF" d="M220.886,505.705c1.126,7.725,4.508,14.436,9.239,20.537
			c4.982,6.426,10.925,11.889,17.243,16.941c8.055,6.439,16.245,12.711,24.317,19.131c4.382,3.484,8.487,7.279,12.374,11.326
			c7.548,7.857,11.99,17.24,14.14,27.826c1.61,7.926,2.369,15.947,2.95,24c0.775,10.748,1.146,21.535,2.82,32.207
			c0.968,6.174,2.38,12.229,4.815,18.014c4.3,10.217,11.667,17.201,22.034,21.082c6.335,2.373,12.921,3.57,19.611,4.285
			c6.439,0.688,12.902,0.938,19.375,1.098c7.427,0.186,14.853,0.494,22.269,0.932c5.901,0.348,11.759,1.145,17.54,2.451
			c9.61,2.17,17.808,6.895,25.012,13.527c5.841,5.379,11.028,11.348,16.106,17.424c6.51,7.789,12.762,15.801,19.795,23.145
			c4.102,4.283,8.461,8.268,13.355,11.643c4.994,3.443,10.398,5.938,16.381,7.094c0.335,0.139,0.34,0.287,0.016,0.449
			c-93.44,0-186.88,0-280.32,0c0-91.84,0-183.68,0-275.52C221.515,503.619,220.165,505.061,220.886,505.705z"/>
		<path fill-rule="evenodd" clip-rule="evenodd" fill="#FFFFFF" d="M874.264,393.348c-0.283-4.65-1.93-8.885-4.057-12.943
			c-3.492-6.673-8.426-12.217-13.855-17.354c-8.037-7.602-16.986-14.078-25.697-20.852c-6.188-4.812-12.223-9.789-17.832-15.294
			c-8.574-8.417-13.662-18.58-15.883-30.303c-1.236-6.525-1.977-13.103-2.508-19.717c-0.811-10.11-1.133-20.26-2.354-30.337
			c-1.012-8.354-2.531-16.581-5.998-24.341c-4.268-9.553-11.338-16.095-21.049-19.864c-5.93-2.301-12.104-3.56-18.393-4.296
			c-9.855-1.153-19.766-1.279-29.67-1.573c-8.861-0.263-17.701-0.756-26.494-2.134c-12.477-1.957-22.92-7.615-31.848-16.407
			c-6.912-6.806-13.041-14.29-19.191-21.758c-5.645-6.853-11.277-13.715-17.654-19.917c-5.188-5.044-10.756-9.562-17.361-12.661
			c-3.795-1.78-7.766-2.938-11.938-3.385c-0.355-0.112-0.371-0.257-0.043-0.436c94.08,0,188.16,0,282.24,0c0,91.2,0,182.4,0,273.601
			C874.518,393.704,874.379,393.694,874.264,393.348z"/>
		<path fill-rule="evenodd" clip-rule="evenodd" fill="#C6E1F1" d="M220.886,505.705c-0.633-0.68-0.228-1.756-0.927-2.408
			c0-1.602,0-3.201,0-4.8c0.176,0.012,0.352,0.023,0.528,0.035C220.242,500.944,221.084,503.295,220.886,505.705z"/>
		<path fill-rule="evenodd" clip-rule="evenodd" fill="#9FCFE6" d="M592.439,119.776c0,0.146,0.014,0.292,0.043,0.436
			c-2.264,0.005-4.527,0.011-6.791,0.016c0.033-0.149,0.043-0.299,0.027-0.452C587.959,119.776,590.199,119.776,592.439,119.776z"/>
		<path fill-rule="evenodd" clip-rule="evenodd" fill="#CBE4F2" d="M874.264,393.348c0.139-0.002,0.277,0.008,0.416,0.028
			c0,0.64,0,1.28,0,1.92C874.207,394.718,874.141,394.053,874.264,393.348z"/>
		<path fill-rule="evenodd" clip-rule="evenodd" fill="#8AC7E2" d="M874.68,402.497c-0.141,0.029-0.281,0.051-0.426,0.064
			c-0.109-0.715-0.143-1.414,0.426-1.984C874.68,401.216,874.68,401.856,874.68,402.497z"/>
		<path fill-rule="evenodd" clip-rule="evenodd" fill="#C9E3F1" d="M500.279,778.816c0.005-0.15,0-0.299-0.016-0.449
			c0.692-0.049,1.398-0.162,1.936,0.449C501.56,778.816,500.919,778.816,500.279,778.816z"/>
		<path fill-rule="evenodd" clip-rule="evenodd" fill="#D0E6F3" d="M512.293,778.365c-0.014,0.15-0.019,0.301-0.014,0.451
			c-0.641,0-1.279,0-1.92,0C510.887,778.166,511.607,778.342,512.293,778.365z"/>
		<path fill-rule="evenodd" clip-rule="evenodd" fill="#FFFFFF" d="M324.086,449.293c0.765-57.158,19.571-107.466,57.888-150.06
			c31.647-35.179,70.832-57.863,116.976-68.412c12.65-2.893,25.488-4.495,38.468-5.072c38.175-1.699,74.421,5.82,108.731,22.608
			c19.975,9.773,38.072,22.308,54.232,37.58c32.432,30.646,54.01,67.645,64.605,111.002c2.967,12.139,4.799,24.461,5.629,36.938
			c0.764,11.437,0.762,22.87-0.201,34.278c-2.744,32.506-11.969,63.072-28.115,91.439c-22.717,39.912-54.664,70.189-95.738,90.744
			c-20.68,10.35-42.521,17.092-65.393,20.58c-15.248,2.326-30.578,3.084-45.935,2.152c-50.56-3.064-95.266-20.967-133.586-54.119
			c-36.441-31.527-60.185-70.959-71.511-117.811c-3.145-13.005-4.985-26.216-5.65-39.593
			C324.283,457.473,324.133,453.401,324.086,449.293z"/>
		<path fill-rule="evenodd" clip-rule="evenodd" fill="#00A7D1" d="M755.215,449.467c-0.727,53.431-18.373,100.394-54.346,140.074
			c-29.277,32.293-65.436,53.137-107.934,62.877c-11.004,2.521-22.168,4.018-33.457,4.602
			c-47.148,2.436-90.307-9.518-129.248-36.186c-28.663-19.629-50.9-45.064-66.905-75.908c-10.816-20.846-17.774-42.92-21.094-66.173
			c-1.998-13.994-2.601-28.055-1.654-42.121c3.272-48.648,21.122-91.271,53.949-127.362c29.095-31.986,64.916-52.77,107.039-62.599
			c18.974-4.427,38.249-6.07,57.657-4.821c55.793,3.589,102.939,25.874,140.992,66.793c27.141,29.185,44.102,63.7,51.484,102.876
			C754.059,424.04,755.15,436.698,755.215,449.467z"/>
		<path fill-rule="evenodd" clip-rule="evenodd" fill="#FFFFFF" d="M505.641,373.383c0.277,3.075,0.283,3.132-2.842,3.471
			c-5.093,0.552-10.152,1.278-15.104,2.623c-2.09,0.568-4.107,1.33-5.963,2.475c-2.74,1.689-4.173,4.092-4.121,7.36
			c0.031,1.937,0.358,3.817,0.854,5.677c1.315,4.944,2.637,9.887,3.965,14.828c0.581,2.157,0.595,2.17,2.726,1.6
			c8.417-2.252,16.831-4.514,25.246-6.773c3.438-0.924,3.461-0.932,4.107,2.645c1.62,8.967,3.22,17.938,4.819,26.908
			c0.337,1.89,0.302,1.968-1.571,2.475c-7.87,2.129-15.748,4.233-23.622,6.352c-3.166,0.852-2.644,0.686-1.94,3.32
			c6.722,25.178,13.48,50.346,20.227,75.515c1.408,5.252,2.818,10.5,4.218,15.754c0.654,2.455,0.646,2.467-1.69,3.092
			c-9.035,2.42-18.071,4.836-27.106,7.252c-2.471,0.66-4.939,1.334-7.415,1.977c-1.785,0.465-1.824,0.457-2.293-1.27
			c-1.594-5.861-3.165-11.73-4.738-17.6c-6.644-24.783-13.286-49.568-19.928-74.353c-0.083-0.309-0.152-0.621-0.246-0.926
			c-0.483-1.574-0.547-1.639-2.204-1.201c-4.715,1.242-9.418,2.533-14.134,3.771c-4.684,1.229-3.785,1.621-4.999-2.805
			c-2.326-8.479-4.57-16.982-6.847-25.475c-0.104-0.387-0.152-0.791-0.294-1.162c-0.341-0.891-0.03-1.318,0.875-1.538
			c1.553-0.378,3.082-0.853,4.626-1.265c3.861-1.032,7.726-2.051,11.588-3.079c2.426-0.646,2.425-0.651,1.806-3.003
			c-1.832-6.957-3.781-13.887-5.464-20.879c-1.7-7.064-2.198-14.229-0.572-21.396c2.064-9.095,7.491-15.76,15.238-20.682
			c6.839-4.343,14.397-6.891,22.208-8.773c6.937-1.672,13.988-2.564,21.106-2.975c1.357-0.078,2.708-0.245,4.065-0.326
			c2.354-0.14,2.407-0.131,2.686,2.146c0.416,3.412,0.762,6.833,1.115,10.252C504.572,362.723,505.102,368.053,505.641,373.383z"/>
		<path fill-rule="evenodd" clip-rule="evenodd" fill="#FFFFFF" d="M596.863,519.543c-5.508,0.02-10.826-0.854-15.742-3.502
			c-4.947-2.666-8.518-6.67-11.195-11.547c-2.252-4.101-3.58-8.535-4.779-13.023c-5.65-21.156-11.309-42.311-16.967-63.465
			c-0.082-0.309-0.186-0.612-0.277-0.918c-0.527-1.737-0.535-1.766-2.33-1.293c-4.637,1.223-9.264,2.48-13.9,3.707
			c-1.919,0.508-1.962,0.498-2.468-1.385c-2.469-9.186-4.922-18.373-7.364-27.565c-0.451-1.698-0.424-1.74,1.39-2.229
			c4.552-1.23,9.116-2.42,13.671-3.643c2.166-0.582,2.173-0.604,1.602-2.74c-2.371-8.879-4.75-17.757-7.129-26.635
			c-0.082-0.309-0.176-0.615-0.281-0.917c-0.404-1.167-0.152-1.882,1.131-2.378c3.057-1.18,6.049-2.524,9.068-3.801
			c8.025-3.393,16.053-6.785,24.078-10.178c0.295-0.124,0.588-0.252,0.887-0.365c1.619-0.613,1.703-0.604,2.154,1.037
			c1.143,4.16,2.248,8.333,3.363,12.502c1.795,6.717,3.584,13.436,5.383,20.152c0.631,2.361,0.641,2.357,3.074,1.706
			c8.184-2.19,16.369-4.381,24.553-6.572c0.385-0.103,0.764-0.243,1.154-0.323c1.492-0.303,1.615-0.262,1.938,1.242
			c0.619,2.891,1.189,5.793,1.758,8.693c1.244,6.354,2.475,12.709,3.715,19.062c0.455,2.334,0.465,2.353-1.797,2.961
			c-7.793,2.1-15.594,4.177-23.389,6.275c-1.969,0.53-1.992,0.561-1.451,2.586c5.432,20.305,10.865,40.609,16.322,60.906
			c1.336,4.967,4.342,6.742,9.412,5.51c4.762-1.158,9.289-2.959,13.564-5.363c0.418-0.234,0.859-0.443,1.24-0.729
			c1.021-0.758,1.582-0.34,1.957,0.693c0.137,0.375,0.326,0.73,0.486,1.096c3.459,7.824,6.906,15.654,10.379,23.47
			c0.971,2.189,0.994,2.021-0.865,3.193c-11.883,7.484-24.68,12.393-38.748,13.697c-0.398,0.037-0.797,0.07-1.197,0.078
			C598.463,519.553,597.664,519.543,596.863,519.543z"/>
		<path fill-rule="evenodd" clip-rule="evenodd" fill="#FFFFFF" d="M654.777,456.612c-0.24-1.125,0.312-1.266,0.877-1.418
			c2.547-0.689,5.088-1.396,7.635-2.082c9.109-2.449,18.219-4.891,27.33-7.334c0.309-0.083,0.645-0.096,0.93-0.225
			c1.18-0.54,1.777-0.098,2.064,1.088c0.396,1.631,0.846,3.249,1.279,4.871c3.205,11.969,6.412,23.936,9.617,35.904
			c0.104,0.387,0.186,0.777,0.299,1.162c0.213,0.725,0.09,1.254-0.752,1.428c-0.312,0.064-0.609,0.195-0.918,0.277
			c-11.506,3.076-23.012,6.154-34.52,9.221c-2.182,0.58-2.195,0.561-2.818-1.762c-3.59-13.355-7.176-26.713-10.76-40.068
			C654.916,457.211,654.811,456.743,654.777,456.612z"/>
	</g>
</g>
<g id="Ebene_2">
</g>
</svg>
